<?xml version="1.0" encoding="utf-8"?>
<!-- Generator: Adobe Illustrator 23.0.3, SVG Export Plug-In . SVG Version: 6.00 Build 0)  -->
<svg version="1.1" id="Layer_1" xmlns="http://www.w3.org/2000/svg" xmlns:xlink="http://www.w3.org/1999/xlink" x="0px" y="0px"
	 viewBox="0 0 1200 1200" enable-background="new 0 0 1200 1200" xml:space="preserve">
<g>
	<path fill="#383135" d="M50,907.609c0,23.315,18.895,42.211,42.205,42.211h1015.589c23.311-0.001,42.206-18.896,42.206-42.211
		V289.253c0-23.311-18.895-42.216-42.206-42.216H92.205c-23.31,0-42.205,18.905-42.205,42.216V907.609z"/>
	<polygon fill="#F5E9DC" points="1075.653,766.491 1075.653,352.97 1034.927,309.18 157.955,309.18 121.303,346.853 
		121.303,764.448 	"/>
	<polygon fill="#F4568B" points="293.689,716.417 1075.653,716.417 1075.653,766.491 293.689,764.817 	"/>
	<polygon fill="#F4568B" points="275.591,764.772 121.303,658.021 121.303,597.13 363.83,764.772 	"/>
	<polygon fill="#FF7373" points="293.642,716.417 121.303,597.13 121.303,536.824 353.495,696.853 	"/>
	<polygon fill="#FFD576" points="323.251,686.397 121.303,547.212 121.303,486.397 351.668,645.166 	"/>
	<rect x="293.689" y="666.343" fill="#FF7373" width="781.964" height="50.074"/>
	<rect x="293.689" y="616.268" fill="#FFD576" width="781.964" height="50.074"/>
	<path fill="#F5E9DC" d="M978.902,952.963c-1.022-3.113-46.866-166.109-46.866-166.109H250.643L204.82,951.941L978.902,952.963z"/>
	<g>
		<path fill="#383135" d="M835.273,901.959c0-14.624,11.863-26.486,26.491-26.486c14.64,0,26.502,11.862,26.502,26.486
			c0,14.618-11.862,26.47-26.502,26.47C847.136,928.429,835.273,916.577,835.273,901.959z"/>
		<path fill="#383135" d="M306.669,901.959c0-14.624,11.862-26.486,26.491-26.486c14.607,0,26.47,11.862,26.47,26.486
			c0,14.618-11.863,26.47-26.47,26.47C318.531,928.429,306.669,916.577,306.669,901.959z"/>
		<path fill="#383135" d="M729.35,897.299c0,5.394,4.362,9.751,9.746,9.751h18.193c5.383,0,9.745-4.357,9.745-9.751v-19.215
			c0-5.373-4.362-9.74-9.745-9.74h-18.193c-5.384,0-9.746,4.367-9.746,9.74V897.299z"/>
		<path fill="#383135" d="M418.145,897.299c0,5.394,4.34,9.751,9.724,9.751h18.214c5.361,0,9.723-4.357,9.723-9.751v-19.215
			c0-5.373-4.362-9.74-9.723-9.74h-18.214c-5.384,0-9.724,4.367-9.724,9.74V897.299z"/>
	</g>
	<path fill="#383135" d="M841.401,480.288c0,0,85.549,6.097,85.549,94.71c0,88.624-100.837,80.474-110.008,80.474
		c-9.15,0-461.387,0-461.387,0s-84.528-1.021-84.528-82.496c0-81.484,65.175-94.731,89.613-94.731
		C385.089,478.245,841.401,480.288,841.401,480.288z"/>
	<rect x="477.778" y="503.706" fill="#F5E9DC" width="243.434" height="79.452"/>
	<path fill="#383135" d="M650.184,514.237c0,0-4.947,36.174,2.67,59.782h57.888v-60.154L650.184,514.237z"/>
	<path fill="#383135" d="M487.172,575.87v-63.782h14.821c1.362,11.937,4.511,45.152,0.223,63.782H487.172z"/>
	<g>
		<path fill="#F5E9DC" d="M293.689,566.859c0-36.003,29.183-65.186,65.175-65.186c36.014,0,65.197,29.183,65.197,65.186
			s-29.183,65.186-65.197,65.186C322.872,632.044,293.689,602.861,293.689,566.859z"/>
		<g>
			<polygon fill="#383135" points="339.884,515.962 349.8,512.259 345.416,500.609 335.501,504.311 			"/>
			<polygon fill="#383135" points="306.361,555.272 308.297,544.857 296.136,542.58 294.189,552.986 			"/>
			<polygon fill="#383135" points="323.659,607.436 316.063,600.075 307.392,608.969 314.967,616.352 			"/>
			<polygon fill="#383135" points="378.131,617.745 368.035,620.65 371.141,632.629 381.218,629.747 			"/>
			<polygon fill="#383135" points="412.943,576.476 410.666,586.732 422.677,589.723 424.976,579.477 			"/>
			<polygon fill="#383135" points="409.634,521.387 401.645,514.589 393.367,523.803 401.357,530.601 			"/>
		</g>
	</g>
	<g>
		<path fill="#F5E9DC" d="M769.13,566.859c0-36.003,29.183-65.186,65.197-65.186c35.992,0,65.175,29.183,65.175,65.186
			s-29.183,65.186-65.175,65.186C798.313,632.044,769.13,602.861,769.13,566.859z"/>
		<g>
			<polygon fill="#383135" points="815.325,515.962 825.241,512.259 820.868,500.609 810.953,504.311 			"/>
			<polygon fill="#383135" points="781.79,555.272 783.716,544.857 771.566,542.58 769.63,552.986 			"/>
			<polygon fill="#383135" points="799.101,607.436 791.504,600.075 782.855,608.969 790.43,616.352 			"/>
			<polygon fill="#383135" points="853.573,617.745 843.498,620.65 846.583,632.629 856.679,629.747 			"/>
			<polygon fill="#383135" points="888.384,576.476 886.107,586.732 898.14,589.723 900.428,579.477 			"/>
			<polygon fill="#383135" points="885.096,521.387 877.106,514.589 868.829,523.803 876.819,530.601 			"/>
		</g>
	</g>
	<rect x="284.339" y="357.372" fill="#FFFFFF" width="630.973" height="74.671"/>
	<g>
		<path fill="#FF4777" d="M1000.281,395.34v19.29h-6.269v17.416h-21.757v-46.512c0-9.003,2.457-15.996,7.369-20.979
			c4.91-4.983,11.814-7.474,20.711-7.474c8.573,0,14.913,2.259,19.022,6.778c4.109,4.52,6.162,11.495,6.162,20.926v47.262h-21.754
			V386.23c0-2.858-0.341-4.84-1.018-5.948c-0.68-1.107-1.893-1.661-3.644-1.661c-3.395,0-5.091,2.537-5.091,7.609v9.11H1000.281z"/>
	</g>
</g>
</svg>
